<?xml version="1.0" encoding="UTF-8"?>
<svg id="Ebene_2" data-name="Ebene 2" xmlns="http://www.w3.org/2000/svg" viewBox="0 0 56.57 44">
  <defs>
    <style>
      .cls-1 {
        fill: #655b81;
      }
    </style>
  </defs>
  <g id="Ebene_1-2" data-name="Ebene 1">
    <path class="cls-1" d="M4.35,44c-1.21,0-2.23-.42-3.08-1.27-.85-.85-1.27-1.87-1.27-3.08V4.35c0-1.21.42-2.23,1.27-3.08.85-.85,1.87-1.27,3.08-1.27h47.87c1.21,0,2.23.42,3.08,1.27.85.85,1.27,1.87,1.27,3.08v35.3c0,1.21-.42,2.23-1.27,3.08-.85.85-1.87,1.27-3.08,1.27H4.35ZM28.29,21.54L2.42,4.26v35.39c0,.56.18,1.03.54,1.39.36.36.83.54,1.39.54h47.87c.56,0,1.03-.18,1.39-.54.36-.36.54-.83.54-1.39V4.26l-25.87,17.28ZM28.29,18.76L53.05,2.42H3.6l24.69,16.34ZM2.42,4.26v-1.84,37.23c0,.56.18,1.03.54,1.39.36.36.83.54,1.39.54h-1.93V4.26Z"/>
  </g>
</svg>